<?xml version="1.0" encoding="UTF-8"?>
<!-- Generator: Adobe Illustrator 19.0.0, SVG Export Plug-In . SVG Version: 6.00 Build 0)  -->
<svg version="1.1" id="レイヤー_1" xmlns="http://www.w3.org/2000/svg" xmlns:xlink="http://www.w3.org/1999/xlink" x="0px" y="0px" viewBox="0 0 40 40" style="enable-background:new 0 0 40 40;" xml:space="preserve">
<style type="text/css">
	.st0{fill:#12CCAD;}
</style>
<path id="XMLID_16_" class="st0" d="M20.2,1L20.2,1L20.2,1C17.3,0.9,1.3,17,2.4,21.6c0.5,2.1,6.8,2.6,6.8,2.6s2,4.6,1.2,6.8  c-0.3,0.9-3,3.9,1.2,6.8l0,0c0,0,2.5-1.4,2.7-4.5c0,0.3-0.3,4.5,2.4,5.6l0,0l0,0c0,0,2.4-0.4,2.5-5.1c0,0,0,0,0,0c0,0,0,0,0,0  c-0.1,4.7,2.2,5.3,2.2,5.3l0,0l0,0c2.8-0.9,2.7-5.1,2.7-5.4c0,3.1,2.4,4.7,2.4,4.7l0,0c4.4-2.6,1.9-5.8,1.7-6.7  c-0.6-2.3,1.7-6.7,1.7-6.7s6.3-0.2,6.9-2.2C38.1,18.1,23.1,1.1,20.2,1z M24,28c-3-0.1-3.2-1.3-4.6-1.4c0,0,0,0,0,0c0,0,0,0,0,0  c-1.4,0-1.7,1.2-4.7,1.1c-3.1-0.1-5.6-3.1-5.5-6.7c0.1-3.4,2.4-6.8,6.8-6.3c2.2,0.3,2.8,1.2,3.7,1.2c0.9,0,1.5-0.9,3.7-1  c4.5-0.2,6.5,3.2,6.4,6.7C29.8,25.2,27.1,28.1,24,28z"/>
<path id="XMLID_12_" class="st0" d="M24.1,15.7c-1.9-0.1-3.6,1.1-4.5,2.8c-0.7-1.8-2.3-3-4.3-3.1c-2.7-0.1-4.9,2.2-5,5  c-0.1,2.9,2,5.3,4.7,5.3c1.9,0.1,3.6-1.1,4.5-2.8c0.7,1.8,2.3,3,4.3,3.1c2.7,0.1,4.9-2.2,5-5C28.9,18.1,26.8,15.7,24.1,15.7z   M15.6,21.6c-1.6,0-2.8-1.3-2.8-2.8c0-1.5,1.4-2.7,2.9-2.6c1.6,0,2.8,1.3,2.8,2.8C18.5,20.5,17.1,21.7,15.6,21.6z M23.6,21.9  c-1.6,0-2.8-1.3-2.8-2.8c0-1.5,1.4-2.7,2.9-2.6c1.6,0,2.8,1.3,2.8,2.8C26.4,20.7,25.1,21.9,23.6,21.9z"/>
</svg>