<?xml version="1.0" encoding="UTF-8"?>
<!-- Generator: Adobe Illustrator 19.0.0, SVG Export Plug-In . SVG Version: 6.00 Build 0)  -->
<svg version="1.1" id="レイヤー_1" xmlns="http://www.w3.org/2000/svg" xmlns:xlink="http://www.w3.org/1999/xlink" x="0px" y="0px" viewBox="0 0 40 40" style="enable-background:new 0 0 40 40;" xml:space="preserve">
<style type="text/css">
	.st0{fill:#AA3BF2;}
</style>
<path id="XMLID_24_" class="st0" d="M37.8,2.2H2.2C1,2.2,0,2.8,0,3.7v12.4c0,0.9,1,1.5,2.2,1.5h35.7c1.2,0,2.2-0.7,2.2-1.5V3.7  C40,2.8,39,2.2,37.8,2.2z M13.1,12.4c0,0.9-1,1.5-2.2,1.5h-6c-1.2,0-2.2-0.7-2.2-1.5V8c0-0.9,1-1.5,2.2-1.5h6c1.2,0,2.2,0.7,2.2,1.5  V12.4z M25.2,12.4c0,0.9-1,1.5-2.2,1.5h-6c-1.2,0-2.2-0.7-2.2-1.5V8c0-0.9,1-1.5,2.2-1.5h6c1.2,0,2.2,0.7,2.2,1.5V12.4z M37.2,12.4  c0,0.9-1,1.5-2.2,1.5h-6c-1.2,0-2.2-0.7-2.2-1.5V8c0-0.9,1-1.5,2.2-1.5h6c1.2,0,2.2,0.7,2.2,1.5V12.4z"/>
<path id="XMLID_19_" class="st0" d="M37.8,22.4H2.2C1,22.4,0,23.1,0,23.9v12.4c0,0.9,1,1.5,2.2,1.5h35.7c1.2,0,2.2-0.7,2.2-1.5V23.9  C40,23.1,39,22.4,37.8,22.4z M13.1,32.6c0,0.9-1,1.5-2.2,1.5h-6c-1.2,0-2.2-0.7-2.2-1.5v-4.3c0-0.9,1-1.5,2.2-1.5h6  c1.2,0,2.2,0.7,2.2,1.5V32.6z M25.2,32.6c0,0.9-1,1.5-2.2,1.5h-6c-1.2,0-2.2-0.7-2.2-1.5v-4.3c0-0.9,1-1.5,2.2-1.5h6  c1.2,0,2.2,0.7,2.2,1.5V32.6z M37.2,32.6c0,0.9-1,1.5-2.2,1.5h-6c-1.2,0-2.2-0.7-2.2-1.5v-4.3c0-0.9,1-1.5,2.2-1.5h6  c1.2,0,2.2,0.7,2.2,1.5V32.6z"/>
</svg>