<?xml version="1.0" encoding="UTF-8"?>
<!-- Generator: Adobe Illustrator 19.0.0, SVG Export Plug-In . SVG Version: 6.00 Build 0)  -->
<svg version="1.1" id="レイヤー_1" xmlns="http://www.w3.org/2000/svg" xmlns:xlink="http://www.w3.org/1999/xlink" x="0px" y="0px" viewBox="0 0 40 40" style="enable-background:new 0 0 40 40;" xml:space="preserve">
<style type="text/css">
	.st0{fill:#7BED00;}
</style>
<polygon id="XMLID_11_" class="st0" points="23.9,7.3 26.1,9.5 21.2,14.4 12.2,23.4 5.4,30.1 6.9,31.6 13,25.6 14.1,26.6 8,32.7   9.5,34.2 15.6,28.1 16.7,29.2 10.6,35.3 12.1,36.8 18.8,30.1 27.8,21 32.7,16.1 34.9,18.3 39,3.2 "/>
<polygon id="XMLID_10_" class="st0" points="7.3,16.1 12.8,21.6 19.4,15 13.9,9.5 16.1,7.3 1,3.2 5.1,18.3 "/>
<polygon id="XMLID_9_" class="st0" points="20.6,29.5 27.9,36.8 29.4,35.3 23.3,29.2 24.4,28.1 30.5,34.2 32,32.7 25.9,26.6   27,25.6 33.1,31.6 34.6,30.1 27.2,22.8 "/>
</svg>